<svg xmlns="http://www.w3.org/2000/svg" viewBox="0 0 1800.6 173.3"><path fill="#FFF" d="M767.7 139.2c-9.4 0-18.3-1.7-26.3-5-8.2-3.4-15.2-8.2-21.4-14.1-6-6-10.9-13.2-14.4-21.6-3.5-8.4-5.2-17.4-5.2-27v-.3c0-9.4 1.7-18.4 5.2-26.6 3.5-8.4 8.4-15.4 14.4-21.8 6-6 13.4-11.1 21.8-14.4 8.4-3.5 17.6-5.2 27.6-5.2 6.7 0 12.7.7 18.4 1.8 5.4 1.2 10.4 3.2 15.1 5.7 4.7 2.5 8.5 5.2 12.4 8.7 3.7 3.4 6.9 7 9.9 11.1L798 51.6c-3.7-4.9-8-8.4-12.4-11.4-4.4-2.7-9.9-4.2-16.4-4.2-4.7 0-8.7.8-12.6 2.7-3.9 1.8-7.2 4.2-9.9 7.4s-4.9 6.7-6.5 11.1c-1.5 4.2-2.3 8.7-2.3 13.4v.3c0 4.9.8 9.4 2.3 13.7 1.5 4.4 3.7 8 6.5 11.1 2.7 3.2 6 5.7 9.9 7.4 3.7 1.8 8 2.7 12.6 2.7 3.4 0 6.5-.3 9.2-1 2.7-.8 5.4-1.8 7.7-3.4 2.3-1.5 4.4-3.2 6.5-5 2.2-1.8 4.2-4 6-6.5l27.1 19.4c-3.2 4.2-6.5 8.2-10.2 11.7s-8 6.7-12.6 9.4c-4.7 2.5-9.9 4.7-15.7 6-5.6 2.2-12.1 2.8-19.5 2.8M829.8.2h35.9v136.5h-35.9V.2zm79.3 138.5c-10.9 0-19.4-3.4-25.5-9.9-6-6.7-9.2-15.7-9.2-27.1V35.5h35.9v55c0 5.7 1.3 9.9 4 12.7 2.5 3 6 4.4 10.2 4.4 4.2 0 7.7-1.5 10.4-4.4 2.7-2.8 4.2-7 4.2-12.7v-55H975v101.2h-35.9V123c-3.2 4.2-7 8-11.9 11.4-5.2 3-11.1 4.3-18.1 4.3m141.1 0c-3.7 0-7.4-.3-10.2-1.3-3.2-.8-5.9-1.8-8.4-3.2s-4.9-3-6.7-4.7c-2-1.8-3.7-3.5-5.4-5.4v12.4h-35.9V0h35.9l-.2 48.8c1.7-2 3.5-4.2 5.7-6s4.2-3.5 6.7-5 5.2-2.5 8.2-3.5c3.2-.8 6.5-1.3 10.2-1.3 6 0 11.7 1.3 17.1 3.5 5.4 2.5 10.2 5.9 14.2 10.4 4.2 4.4 7.4 10.1 9.9 16.6s3.5 13.7 3.5 21.8v.3c0 8.2-1.2 15.7-3.5 22.1-2.5 6.5-5.7 12.1-9.7 16.6-4 4.7-8.7 8-14.2 10.4-5.7 3-11.4 4-17.2 4m-11.1-29.6c5.9 0 10.7-2 14.7-6.4 4-4.2 5.9-9.9 5.9-16.6v-.3c0-6.7-2-12.1-5.9-16.6-4-4.2-8.7-6.4-14.7-6.4-3 0-5.4.7-8 1.7-2.7 1-4.7 2.7-6.5 4.9-1.8 2-3.4 4.4-4.4 7s-1.7 5.9-1.7 9.2v.3c0 3.4.5 6.5 1.7 9.2 1 2.7 2.5 5.2 4.4 7.4s4 3.5 6.5 4.9c2.3 1.2 5.2 1.7 8 1.7M0 5.9h104.7v31.8H36.2v21.9h62v30.3h-62v46.7H0V5.9zm142.9 132.8c-10.9 0-19.4-3.4-25.5-9.9-6-6.7-9.2-15.7-9.2-27.1V35.5h35.9v55c0 5.7 1.3 9.9 4 12.7 2.5 3 6 4.4 10.2 4.4s7.7-1.5 10.4-4.4c2.7-3 4.2-7 4.2-12.7v-55h35.9v101.2h-35.9V123c-3.2 4.2-7 8-11.9 11.4-5 3-10.9 4.3-18.1 4.3m74.6-103.2h35.9v14.2c1.7-2 3.4-4.2 5.4-6 1.8-2 4.2-3.9 6.7-5.2 2.5-1.5 5.2-2.7 8.2-3.5s6.4-1.5 9.9-1.5c10.9 0 19.4 3.4 25.5 9.9 6 6.7 9.2 15.8 9.2 27.1v66.2h-35.9V81.9c0-5.7-1.3-9.9-4-12.7-2.5-3-6-4.4-10.2-4.4-4.4 0-7.7 1.5-10.7 4.4-2.7 3-4.2 7-4.2 12.7v54.8h-35.9l.1-101.2zm149.6 103.2c-6 0-11.7-1.3-17.1-3.5-5.4-2.5-10.2-5.9-14.2-10.4-4-4.4-7.4-10.1-9.7-16.6-2.5-6.5-3.5-13.7-3.5-21.8v-.3c0-8.2 1.3-15.7 3.5-22.1 2.2-6.4 5.7-12.1 9.7-16.6 4.2-4.7 8.9-8 14.2-10.4 5.4-2.5 11.1-3.5 16.9-3.5 7.5 0 13.7 1.5 18.6 4.4 4.9 3 9 6.4 12.4 10.2V.3h35.9v136.5h-35.9l.2-13.4c-3.5 4.2-7.5 8-12.4 11.1-5 2.9-11.1 4.2-18.6 4.2m10.7-29.6c3 0 5.5-.7 8-1.7s4.7-2.7 6.5-4.9 3.4-4.4 4.4-7.4c1-2.7 1.7-5.9 1.7-9.2v-.3c0-3.4-.7-6.5-1.7-9.2s-2.5-5.2-4.4-7c-1.8-2-4-3.5-6.5-4.9-2.5-1-5.2-1.7-8-1.7-2.7 0-5.4.7-7.9 1.7s-4.7 2.7-6.5 4.7-3.4 4.4-4.4 7c-1 2.7-1.7 5.9-1.7 9.2v.3c0 3.4.7 6.5 1.7 9.2s2.5 5.2 4.4 7.4c1.8 2 4 3.5 6.5 4.9 2.4 1.4 4.9 1.9 7.9 1.9m114.8 30c-8 0-15.2-1.3-21.9-3.7-6.7-2.5-12.4-6-17.3-10.7-4.9-4.7-8.5-10.1-11.4-16.6-2.7-6.5-4-13.6-4-21.6v-.4c0-7.4 1.3-14.2 3.7-20.8 2.5-6.5 6-11.9 10.4-16.8 4.7-4.9 9.9-8.5 16.1-11.4 6.2-2.8 13.2-4.2 20.4-4.2 8.9 0 16.4 1.5 22.8 4.4 6.4 2.8 11.7 6.9 15.9 12.1 4.2 5 7.4 10.9 9.4 17.6 2 6.7 3.2 13.7 3.2 21.1v3.5c0 1.3 0 2.5-.2 3.7H472c1.5 5.7 4 9.9 7.7 12.6 3.7 2.7 8.5 4.2 14.1 4.2 4.2 0 8.2-.8 11.7-2.5s7-4.2 10.7-8L536 118c-4.9 6.4-10.9 11.4-18.1 14.9-6.7 4.2-15.3 6.2-25.3 6.2M507 77.6c-.7-5.7-2.5-10.1-5.7-13.4-3.2-3.4-7-5-11.9-5s-8.5 1.7-11.6 5c-3 3.4-5 7.7-6 13.4H507zm38.5-42.1h35.9v20.3c3-6.9 6.7-12.4 11.7-16.6 5-4.2 11.7-6 20.1-5.7v37.6h-3c-9.4 0-16.6 2.7-21.6 8.2-5 5.4-7.5 14.1-7.5 25.8v31.5h-35.9l.3-101.1zm110.1 103.2c-8.5 0-16.9-1.3-25.1-3.5-8.2-2.5-15.7-6.4-22.8-11.4l13.2-21.6c5.9 3.7 11.7 6.7 17.8 8.7 6 1.8 11.7 3 16.9 3 6 0 9-1.8 9-5.4v-.3c0-1.8-1.5-3.5-4.2-4.7s-6.7-2.5-12.1-4c-5-1.3-9.6-2.7-14.1-4.4-4.4-1.7-8.2-3.7-11.4-6-3.2-2.5-5.9-5.4-7.7-8.7-1.8-3.5-2.7-7.7-2.7-13.1V67c0-5.4 1-10.1 3.2-14.2 2.2-4.2 4.9-7.7 8.5-10.4 3.5-2.7 8-5 12.7-6.5 5-1.5 10.2-2.3 16.1-2.3 7.5 0 14.9 1 21.9 3.2 7.4 2 13.7 5 19.8 8.7L682.5 68c-5.2-3-10.4-5.2-15.9-6.9-5.4-1.7-10.1-2.5-14.1-2.5-2.7 0-4.9.3-6 1.5-1.5.8-2 2-2 3.5v.3c0 2 1.5 3.5 4.2 4.9 2.7 1.3 6.9 2.5 12.1 4.2 5 1.5 9.5 3 14.1 4.5 4.4 1.7 8.2 3.9 11.4 6 3.2 2.5 5.9 5.4 7.7 8.7 1.8 3.5 2.7 7.7 2.7 12.6v.3c0 5.7-1 10.4-3 14.7-2 4.2-4.9 7.7-8.4 10.4-3.5 3-8 5-13.1 6.5-5 1.5-10.4 2-16.6 2M1104.4 36.4c-9.2 0-16.8-7.5-16.8-16.8 0-9.4 7.5-16.8 16.8-16.8 9.4 0 16.8 7.5 16.8 16.8.1 9.2-7.4 16.8-16.8 16.8m0-31.2c-7.9 0-14.2 6.2-14.2 14.2 0 7.9 6.4 14.2 14.2 14.2 7.9 0 14.2-6.4 14.2-14.2.2-8-6.2-14.2-14.2-14.2m4.7 24l-5-7.5h-3.4v7.5h-2.7V9.9h7.9c3.2 0 6.2 2.3 6.2 5.9 0 4.4-3.9 5.7-4.9 5.7l5.2 7.7h-3.3zm-3.2-17h-5.2v6.9h5.2c1.7 0 3.5-1.3 3.5-3.4 0-2.1-1.8-3.5-3.5-3.5"/><g fill="#FFF"><path d="M1170.6 71.1c0-39.6 28.6-66.6 64.3-66.6 18.2 0 33.4 7.1 44.8 20.3l-4.8 4.2c-9.1-11.4-24-18.7-40-18.7-32.3 0-57.6 24.5-57.6 60.8 0 35.9 25.3 60.8 57.6 60.8 16 0 30.9-7.3 40-18.7l5 4.1c-12.2 13.7-26.8 20.5-45 20.5-35.7-.1-64.3-27.1-64.3-66.7zM1363.7 124c-8.7 9.5-19.1 13.7-32.3 13.7-16.4 0-32.6-11.2-32.6-31.1s16-31.1 32.6-31.1c13.1 0 23.6 4.2 32.3 13.7v-21c0-15.1-12-23.2-26.3-23.2-12.2 0-21.2 4.2-29.9 14.7l-4.4-3.9c9.1-10.6 18.7-16 34.4-16 18.4 0 32.1 9.3 32.1 28.2v67.4h-5.8V124zm0-29c-7.1-9.5-18.5-14.3-30.7-14.3-17 0-27.8 11.4-27.8 25.9 0 14.5 10.8 25.9 27.8 25.9 12.2 0 23.6-4.8 30.7-14.3V95zM1403.9 119V47.3h-15.5v-5.2h15.5V16.6h5.8v25.5h18.9v5.2h-18.9V119c0 7.9 3.1 13.5 10 13.5 4.6 0 8.7-2.3 11-5l3.5 4.4c-3.7 3.5-7.5 5.8-14.5 5.8-10.8 0-15.8-7.1-15.8-18.7zM1512.5 124c-8.7 9.5-19.1 13.7-32.3 13.7-16.4 0-32.6-11.2-32.6-31.1s16-31.1 32.6-31.1c13.1 0 23.6 4.2 32.3 13.7v-21c0-15.1-12-23.2-26.3-23.2-12.2 0-21.2 4.2-29.9 14.7l-4.4-3.9c9.1-10.6 18.7-16 34.4-16 18.4 0 32.1 9.3 32.1 28.2v67.4h-5.8V124zm0-29c-7.1-9.5-18.5-14.3-30.7-14.3-17 0-27.8 11.4-27.8 25.9 0 14.5 10.8 25.9 27.8 25.9 12.2 0 23.6-4.8 30.7-14.3V95zM1551.5 6.6h5.8v128.8h-5.8V6.6zM1592.8 168.1c6.2 0 10.4-2.7 14.7-12.7l8.5-19.3-40-93.9h6.8l36.7 86.5 36.5-86.5h6.8l-49.4 115.3c-4.4 10-11.2 15.8-20.5 15.8-3.3 0-7-.6-9.3-1.4l1.2-5.4c2 1 5.7 1.6 8 1.6zM1678 118.6c5.8 7.7 15.8 13.9 29.6 13.9 17.2 0 27.6-9.3 27.6-21.6 0-13.7-13.9-17.4-28.2-21.2-15.5-4.1-31.7-8.1-31.7-25.1 0-13.7 11.6-24.7 31.7-24.7 16 0 26.1 6.4 32.1 14.1l-4.2 3.9C1729.4 50 1719.5 45 1707 45c-16.2 0-25.9 8.5-25.9 19.5 0 12.2 12.9 15.3 26.7 18.9 16 4.1 33.2 8.5 33.2 27.4 0 14.5-10.8 26.8-33.4 26.8-14.7 0-24.9-4.2-34.2-14.9l4.6-4.1zM1770.3 119V47.3h-15.5v-5.2h15.5V16.6h5.8v25.5h18.9v5.2h-18.9V119c0 7.9 3.1 13.5 10 13.5 4.6 0 8.7-2.3 11-5l3.5 4.4c-3.7 3.5-7.5 5.8-14.5 5.8-10.8 0-15.8-7.1-15.8-18.7z"/></g></svg>