<?xml version="1.0" encoding="utf-8"?>
<!-- Generator: Adobe Illustrator 21.0.0, SVG Export Plug-In . SVG Version: 6.00 Build 0)  -->
<svg version="1.1" xmlns="http://www.w3.org/2000/svg" xmlns:xlink="http://www.w3.org/1999/xlink" x="0px" y="0px"
	 viewBox="0 0 1000 1000" enable-background="new 0 0 1000 1000" xml:space="preserve">
<g id="Layer_1">
	<g>
		<defs>
			<path id="SVGID_3_" d="M-1251.2-974.7c22.1,31.7,43.1,61.9,65.7,94.3c26.8-57.3,52.7-112.5,80-170.6
				c23.2,104,45.8,205.1,68.9,308.9c31.2-24.7,60.6-47.9,93.2-73.7c-6.8,27.8-12.5,51.8-18.4,75.6c-10.7,43.3-21.5,86.7-32.5,129.9
				c-2.2,8.7-0.3,12.9,8.4,16.7c36.6,16,72.8,32.8,110.6,50c-24.6,26-48.4,51.2-72.3,76.3c-34.2,36-68.2,72.2-102.7,107.8
				c-3.9,4.1-10.9,7.3-16.5,7.3c-50.5,0.6-101,0.6-151.6,0c-5.5-0.1-12.4-3.7-16-7.9c-50.2-57.9-99.9-116.3-149.7-174.4
				c-4.6-5.4-8.2-9.8-5.4-18.3c45.5-138.4,90.5-277,135.6-415.6C-1253.5-969.9-1252.6-971.5-1251.2-974.7 M-1115.3-954.5
				c-3,4.5-4.9,6.7-6.1,9.3c-14.4,30.6-28.8,61.3-43,92c-1.6,3.5-2.6,7.4-3,11.2c-6.9,53.8-13.8,107.6-20.5,161.4
				c-9.6,76.6-18.8,153.3-28.6,229.9c-2.4,18.7,1.1,35.8,9.3,54.1c2.5-4.7,4.5-7.9,6.1-11.3c44.7-101.2,89.4-202.5,133.6-303.9
				c2.7-6.2,3-14.5,1.6-21.3c-8.7-41.6-18.1-83-27.4-124.4C-1100.4-889.1-1107.6-920.6-1115.3-954.5 M-1253-428.1
				c0.9-0.4,1.8-0.7,2.7-1.1c-0.5-2.4-0.9-4.9-1.6-7.3c-16.4-56.6-32.6-113.3-49.5-169.8c-3.3-11.1-3-20.4,2.1-31
				c31.7-66.6,62.8-133.6,93.9-200.5c1.9-4,4.4-10.2,2.7-12.9c-11.8-18.6-24.7-36.5-38.6-56.5c-2.3,6.5-3.9,10.4-5.2,14.4
				c-35.4,108.4-70.6,216.8-106.6,325c-4.3,12.9-3,21.6,6.6,31c9.3,9,17.1,19.7,25.6,29.6C-1298.2-480.8-1275.6-454.4-1253-428.1
				 M-1179.3-382.4c6.4,0.5,10.6,1,14.8,1c23.1,0.1,46.2-0.4,69.2,0.3c9.9,0.3,14.3-2.4,16.8-12.7c14.4-60.3,29.7-120.4,44.3-180.6
				c1.3-5.3,1-11.3-0.1-16.7c-4.5-22.1-9.7-44-14.7-66c-0.7-3-2.1-5.8-4.2-11.5C-1095.8-571.8-1137.2-477.9-1179.3-382.4
				 M-1004.3-568.5c-12.8,51.8-25.1,101.8-37.5,151.8c1,0.5,1.9,1,2.9,1.4c36.9-39,73.9-78,112-118.2
				C-953.5-545.5-978.2-556.7-1004.3-568.5 M-1210.2-746.7c-1-0.2-2-0.5-3-0.8c-2,3.6-4.2,7.1-5.9,10.9c-12,25.5-22,52.2-36.3,76.4
				c-16.1,27.2-18.1,53.1-6.4,82.2c8.4,20.9,13.2,43.3,19.6,65c1.1-0.1,2.2-0.2,3.3-0.2C-1229.3-591-1219.7-668.8-1210.2-746.7
				 M-1017.5-656.5l3.5,0.4c6.2-25.2,12.3-50.5,18.5-75.7c-11.2,5.2-19.9,11.1-27.2,18.2c-3,2.9-5.1,8.9-4.4,13
				C-1024.7-685.8-1020.8-671.2-1017.5-656.5"/>
		</defs>
		<clipPath id="SVGID_1_">
			<use xlink:href="#SVGID_3_"  overflow="visible"/>
		</clipPath>
		<g clip-path="url(#SVGID_1_)">
			<defs>
				<rect id="SVGID_5_" x="-2099" y="-1501.8" width="16486.7" height="22137.9"/>
			</defs>
			<clipPath id="SVGID_2_">
				<use xlink:href="#SVGID_5_"  overflow="visible"/>
			</clipPath>
		</g>
	</g>
</g>
<g id="Layer_2">
	<g>
		<g>
			<g>
				<g enable-background="new    ">
					<g>
						<g>
							<defs>
								<path id="SVGID_177_" d="M747.6,390.5c52.5,60.5,52.5,158.5,0,219L500,894.6L252.4,609.5c-52.5-60.5-52.5-158.5,0-219
									L500,105.4L747.6,390.5z"/>
							</defs>
							<clipPath id="SVGID_4_">
								<use xlink:href="#SVGID_177_"  overflow="visible"/>
							</clipPath>
							<g clip-path="url(#SVGID_4_)">
								<defs>
									<rect id="SVGID_179_" x="198.3" y="100.2" width="604.4" height="812.8"/>
								</defs>
								<clipPath id="SVGID_6_">
									<use xlink:href="#SVGID_179_"  overflow="visible"/>
								</clipPath>
								<rect x="108.8" y="1.2" opacity="0.3" clip-path="url(#SVGID_6_)" fill="#FFFFFF" width="782.4" height="997.5"/>
							</g>
						</g>
					</g>
				</g>
			</g>
		</g>
		<g>
			<g>
				<g enable-background="new    ">
					<g>
						<g>
							<defs>
								<path id="SVGID_181_" d="M681,526.2c38.4,44.2,38.4,115.9,0,160.1L500,894.6L319,686.2c-38.4-44.2-38.4-115.9,0-160.1
									l181-208.4L681,526.2z"/>
							</defs>
							<clipPath id="SVGID_8_">
								<use xlink:href="#SVGID_181_"  overflow="visible"/>
							</clipPath>
							<g clip-path="url(#SVGID_8_)">
								<defs>
									<rect id="SVGID_183_" x="281.7" y="308.6" width="437.7" height="604.4"/>
								</defs>
								<clipPath id="SVGID_10_">
									<use xlink:href="#SVGID_183_"  overflow="visible"/>
								</clipPath>
								<rect x="186" y="213.6" opacity="0.35" clip-path="url(#SVGID_10_)" fill="#FFFFFF" width="627.9" height="785.2"/>
							</g>
						</g>
					</g>
				</g>
			</g>
		</g>
		<g>
			<g>
				<g enable-background="new    ">
					<g>
						<g>
							<defs>
								<path id="SVGID_185_" d="M614.3,661.8c24.3,27.9,24.3,73.2,0,101.1L500,894.6L385.7,762.9c-24.3-27.9-24.3-73.2,0-101.1
									L500,530.2L614.3,661.8z"/>
							</defs>
							<clipPath id="SVGID_12_">
								<use xlink:href="#SVGID_185_"  overflow="visible"/>
							</clipPath>
							<g clip-path="url(#SVGID_12_)">
								<defs>
									<rect id="SVGID_187_" x="365" y="517" width="270.9" height="396"/>
								</defs>
								<clipPath id="SVGID_14_">
									<use xlink:href="#SVGID_187_"  overflow="visible"/>
								</clipPath>
								<rect x="263.3" y="426" opacity="0.55" clip-path="url(#SVGID_14_)" fill="#FFFFFF" width="473.5" height="572.8"/>
							</g>
						</g>
					</g>
				</g>
			</g>
		</g>
	</g>
</g>
</svg>
